<svg width="64" height="64" viewBox="0 0 64 64" fill="none" xmlns="http://www.w3.org/2000/svg">
  <rect x="8" y="10" width="44" height="44" rx="12" fill="#0F172A"/>
  <path d="M52 25.5H55C57.2091 25.5 59 27.2909 59 29.5V34.5C59 36.7091 57.2091 38.5 55 38.5H52V25.5Z" fill="#22C55E"/>
  <path d="M19 23C19 20.7909 20.7909 19 23 19H41C43.2091 19 45 20.7909 45 23V41C45 43.2091 43.2091 45 41 45H23C20.7909 45 19 43.2091 19 41V23Z" fill="#F8FAFC"/>
  <path d="M34.448 17.5L24.5 34.0455H31.7119L29.552 46.5L39.5 29.9545H32.2881L34.448 17.5Z" fill="#F59E0B"/>
  <path d="M17 52C21.888 56.3164 28.7521 57.8587 35.1849 55.9305C41.6177 54.0024 46.7499 49.8644 49 44.5" stroke="#38BDF8" stroke-width="4" stroke-linecap="round"/>
  <path d="M15 18.5C18.5039 12.9653 25.5926 9.65969 32.7955 10.5945C39.9984 11.5294 45.9108 16.4441 48 23" stroke="#22C55E" stroke-width="4" stroke-linecap="round"/>
</svg>
